<svg width="16" height="16" viewBox="0 0 16 16" fill="none" xmlns="http://www.w3.org/2000/svg">
<path d="M11.0818 1.96224C11.9008 1.96468 12.6857 2.29115 13.2649 2.87033C13.8441 3.44952 14.1705 4.23436 14.173 5.05344V11.2352C14.1705 12.0543 13.8441 12.8391 13.2649 13.4183C12.6857 13.9975 11.9008 14.324 11.0818 14.3264H4.9C4.08091 14.324 3.29607 13.9975 2.71689 13.4183C2.13771 12.8391 1.81124 12.0543 1.80879 11.2352V5.05344C1.81124 4.23436 2.13771 3.44952 2.71689 2.87033C3.29607 2.29115 4.08091 1.96468 4.9 1.96224H11.0818ZM11.0818 0.725952H4.9C2.51983 0.725952 0.57251 2.67327 0.57251 5.05344V11.2352C0.57251 13.6154 2.51983 15.5627 4.9 15.5627H11.0818C13.4619 15.5627 15.4092 13.6154 15.4092 11.2352V5.05344C15.4092 2.67327 13.4619 0.725952 11.0818 0.725952Z" fill="#9ab8e9"/>
<path d="M12.0089 5.05345C11.8255 5.05345 11.6462 4.99906 11.4937 4.89717C11.3412 4.79528 11.2223 4.65045 11.1522 4.48101C11.082 4.31157 11.0636 4.12512 11.0994 3.94524C11.1352 3.76536 11.2235 3.60014 11.3532 3.47045C11.4829 3.34077 11.6481 3.25245 11.828 3.21667C12.0078 3.18089 12.1943 3.19925 12.3637 3.26944C12.5332 3.33962 12.678 3.45848 12.7799 3.61097C12.8818 3.76346 12.9362 3.94275 12.9362 4.12615C12.9364 4.248 12.9126 4.3687 12.8661 4.48132C12.8196 4.59394 12.7513 4.69627 12.6652 4.78243C12.579 4.86859 12.4767 4.93688 12.364 4.98339C12.2514 5.0299 12.1307 5.05371 12.0089 5.05345Z" fill="#9ab8e9"/>
<path d="M7.99074 5.67134C8.47983 5.67134 8.95794 5.81638 9.36461 6.0881C9.77128 6.35983 10.0882 6.74604 10.2754 7.19791C10.4626 7.64977 10.5115 8.14699 10.4161 8.62668C10.3207 9.10638 10.0852 9.54701 9.73935 9.89285C9.3935 10.2387 8.95288 10.4742 8.47318 10.5696C7.99348 10.665 7.49627 10.6161 7.0444 10.4289C6.59254 10.2417 6.20633 9.92478 5.9346 9.51811C5.66287 9.11145 5.51784 8.63334 5.51784 8.14424C5.51854 7.4886 5.7793 6.86002 6.24291 6.39641C6.70652 5.93281 7.3351 5.67204 7.99074 5.67134ZM7.99074 4.43506C7.25713 4.43506 6.54 4.6526 5.93003 5.06017C5.32006 5.46774 4.84464 6.04703 4.5639 6.7248C4.28316 7.40256 4.20971 8.14836 4.35283 8.86787C4.49595 9.58738 4.84921 10.2483 5.36795 10.767C5.88669 11.2858 6.5476 11.639 7.26712 11.7822C7.98663 11.9253 8.73242 11.8518 9.41018 11.5711C10.0879 11.2903 10.6672 10.8149 11.0748 10.205C11.4824 9.59498 11.6999 8.87785 11.6999 8.14424C11.6999 7.16051 11.3091 6.21706 10.6135 5.52145C9.91792 4.82585 8.97448 4.43506 7.99074 4.43506Z" fill="#9ab8e9"/>
</svg>
