<svg width="23" height="23" viewBox="0 0 23 23" fill="none" xmlns="http://www.w3.org/2000/svg">
<g clip-path="url(#clip0)">
<path d="M20.2227 3.23901H2.46667C1.42395 3.23901 0.573257 4.08878 0.573257 5.13243V17.7552C0.573257 18.7953 1.42016 19.6486 2.46667 19.6486H20.2227C21.2628 19.6486 22.1161 18.8017 22.1161 17.7552V5.13243C22.1161 4.09231 21.2692 3.23901 20.2227 3.23901ZM19.9612 4.50129L11.3848 13.0777L2.73423 4.50129H19.9612ZM1.83553 17.4938V5.38778L7.91461 11.4147L1.83553 17.4938ZM2.72809 18.3863L8.81099 12.3034L10.9424 14.4165C11.1892 14.6612 11.5873 14.6604 11.833 14.4146L13.9113 12.3364L19.9613 18.3863H2.72809ZM20.8538 17.4938L14.8039 11.4438L20.8538 5.3938V17.4938Z" fill="black"/>
</g>
<defs>
<clipPath id="clip0">
<rect width="21.5428" height="21.5428" fill="white" transform="translate(0.573257 0.672363)"/>
</clipPath>
</defs>
</svg>
