<svg width="66" height="61" viewBox="0 0 66 61" fill="none" xmlns="http://www.w3.org/2000/svg">
<rect x="0.44149" y="0.986572" width="65.3846" height="60" fill="black"/>
<path d="M12.8914 28.726C12.2194 28.726 11.6074 28.534 11.0554 28.15C10.5034 27.742 10.0594 27.202 9.7234 26.53C9.4114 25.834 9.2554 25.066 9.2554 24.226C9.2554 23.194 9.4714 22.246 9.9034 21.382C10.3594 20.494 10.9954 19.738 11.8114 19.114C12.6274 18.49 13.5754 18.034 14.6554 17.746L15.5194 20.338C14.8714 20.506 14.3074 20.77 13.8274 21.13C13.3474 21.466 12.9754 21.862 12.7114 22.318C12.4474 22.75 12.3154 23.206 12.3154 23.686C12.3154 23.83 12.3274 23.962 12.3514 24.082C12.6154 23.914 12.9154 23.83 13.2514 23.83C13.6834 23.83 14.0794 23.938 14.4394 24.154C14.7994 24.37 15.0754 24.658 15.2674 25.018C15.4834 25.378 15.5914 25.786 15.5914 26.242C15.5914 26.698 15.4714 27.118 15.2314 27.502C14.9914 27.862 14.6554 28.162 14.2234 28.402C13.8154 28.618 13.3714 28.726 12.8914 28.726ZM18.5802 43.702V39.958C19.5402 39.142 20.3802 38.434 21.1002 37.834C21.8202 37.21 22.4562 36.658 23.0082 36.178C23.5602 35.674 24.0522 35.218 24.4842 34.81C24.9162 34.402 25.3482 33.982 25.7802 33.55C26.7882 32.542 27.6162 31.642 28.2642 30.85C28.9122 30.058 29.3922 29.314 29.7042 28.618C30.0402 27.922 30.2082 27.202 30.2082 26.458C30.2082 25.354 29.8962 24.49 29.2722 23.866C28.6722 23.218 27.8922 22.894 26.9322 22.894C25.9962 22.894 25.1922 23.194 24.5202 23.794C23.8722 24.394 23.4282 25.21 23.1882 26.242L18.3282 25.414C18.6162 23.974 19.1682 22.726 19.9842 21.67C20.8242 20.614 21.8562 19.798 23.0802 19.222C24.3042 18.622 25.6482 18.322 27.1122 18.322C28.3362 18.322 29.4522 18.526 30.4602 18.934C31.4922 19.342 32.3802 19.906 33.1242 20.626C33.8682 21.346 34.4442 22.198 34.8522 23.182C35.2842 24.166 35.5002 25.234 35.5002 26.386C35.5002 27.466 35.3082 28.486 34.9242 29.446C34.5402 30.406 33.9282 31.402 33.0882 32.434C32.2722 33.466 31.2162 34.618 29.9202 35.89C29.3442 36.442 28.7442 36.994 28.1202 37.546C27.5202 38.074 26.8962 38.614 26.2482 39.166H35.9322V43.702H18.5802ZM47.7824 44.242C46.3664 44.242 45.0224 43.99 43.7504 43.486C42.5024 42.982 41.4224 42.226 40.5104 41.218C39.6224 40.21 38.9984 38.962 38.6384 37.474L43.3904 36.646C43.7024 37.63 44.2304 38.398 44.9744 38.95C45.7184 39.502 46.6184 39.778 47.6744 39.778C48.4424 39.778 49.1144 39.634 49.6904 39.346C50.2904 39.058 50.7584 38.674 51.0944 38.194C51.4304 37.69 51.5984 37.102 51.5984 36.43C51.5984 35.782 51.4304 35.218 51.0944 34.738C50.7584 34.234 50.2784 33.85 49.6544 33.586C49.0544 33.298 48.3584 33.154 47.5664 33.154H44.9384V28.762H47.3144C48.0824 28.762 48.7424 28.63 49.2944 28.366C49.8704 28.102 50.3144 27.742 50.6264 27.286C50.9384 26.806 51.0944 26.266 51.0944 25.666C51.0944 24.826 50.7824 24.142 50.1584 23.614C49.5584 23.062 48.7664 22.786 47.7824 22.786C46.8704 22.786 46.0544 23.05 45.3344 23.578C44.6384 24.082 44.1464 24.838 43.8584 25.846L39.1064 25.018C39.3704 23.698 39.9104 22.534 40.7264 21.526C41.5664 20.518 42.6104 19.738 43.8584 19.186C45.1064 18.61 46.4864 18.322 47.9984 18.322C49.1504 18.322 50.2184 18.49 51.2024 18.826C52.2104 19.162 53.0864 19.642 53.8304 20.266C54.5744 20.866 55.1504 21.586 55.5584 22.426C55.9664 23.266 56.1704 24.19 56.1704 25.198C56.1704 26.422 55.8704 27.514 55.2704 28.474C54.6704 29.41 53.8064 30.154 52.6784 30.706C53.9504 31.186 54.9464 31.942 55.6664 32.974C56.4104 34.006 56.7824 35.218 56.7824 36.61C56.7824 37.69 56.5544 38.698 56.0984 39.634C55.6424 40.57 55.0064 41.386 54.1904 42.082C53.3744 42.754 52.4144 43.282 51.3104 43.666C50.2304 44.05 49.0544 44.242 47.7824 44.242Z" fill="white"/>
</svg>
