<svg width="66" height="61" viewBox="0 0 66 61" fill="none" xmlns="http://www.w3.org/2000/svg">
<rect x="0.531037" y="0.853271" width="65.3846" height="60" fill="black"/>
<g clip-path="url(#clip0)">
<path d="M53.1885 40.7935H50.7001C51.3076 40.2813 51.7673 39.5592 52.0097 38.54C52.1694 37.8675 52.0968 37.2396 52.0199 36.5747C51.9316 35.8119 51.8403 35.0231 52.0695 34.0011V34.001C52.2456 33.215 52.1174 32.6252 51.6884 32.2478C51.1691 31.7911 50.321 31.7717 49.1673 32.1907C48.8017 32.3236 48.4745 32.5244 48.1962 32.7802C47.5066 32.52 46.7635 32.4242 46.0212 32.5031C44.6757 32.6467 43.4305 33.454 42.6373 34.6279C41.8294 34.0843 40.84 33.6516 39.7341 33.3627C39.4054 33.2767 39.0701 33.4736 38.9843 33.8019C38.8985 34.1303 39.0951 34.466 39.4235 34.5518C40.455 34.8212 41.3601 35.2254 42.0715 35.7303C42.0525 35.7818 42.034 35.8336 42.0166 35.8858C41.814 36.5019 41.7403 37.1394 41.8035 37.7291C41.9327 38.9408 42.4396 40.0054 43.2196 40.7934H37.2066V38.8823H38.8402C39.1796 38.8823 39.4547 38.6073 39.4547 38.2678C39.4547 37.9284 39.1796 37.6534 38.8402 37.6534H31.7673V35.357C31.8412 35.3245 31.9182 35.2855 31.9995 35.238C33.1907 34.5418 34.8999 34.1595 36.6889 34.1885C36.6923 34.1886 36.6957 34.1886 36.6991 34.1886C37.0338 34.1886 37.3078 33.9201 37.3134 33.5841C37.3189 33.2448 37.0483 32.9652 36.709 32.9597C36.0006 32.9484 35.3106 32.9944 34.6519 33.092V29.826C35.1965 29.4278 35.7108 28.9125 36.1096 28.2208C36.6971 27.2014 36.7205 26.643 36.763 25.6294C36.7698 25.4672 36.7773 25.2896 36.7877 25.0919C36.788 25.0865 36.7876 25.0811 36.7877 25.0756C36.7879 25.0702 36.7885 25.065 36.7885 25.0596V23.5523C36.7885 21.765 35.3345 20.3109 33.5473 20.3109H33.3325C34.2427 19.3803 34.8516 18.1736 34.8516 17.0886V15.8276C34.8516 14.2436 34.3443 12.8976 33.3847 11.9354C32.5249 11.0733 31.3678 10.5877 30.1267 10.5681C30.1203 10.568 30.1138 10.568 30.1073 10.5681C28.8662 10.5877 27.7088 11.0733 26.8484 11.9353C25.8879 12.8977 25.3802 14.2436 25.3802 15.8277V17.0887C25.3802 18.1732 25.9891 19.38 26.9003 20.311H26.6844C25.0912 20.311 24.3067 21.2849 23.8549 22.0177L20.2769 27.8282C19.8723 27.1016 18.8691 25.5387 17.6829 25.4479C17.3527 25.4229 16.9387 25.4329 16.6627 25.7387C16.3723 26.0606 16.4452 26.4636 16.4983 26.7578L17.3629 31.6875C17.4396 32.1246 17.5 32.4699 17.7887 32.7044C18.091 32.9501 18.4388 32.913 18.8418 32.8697C18.9244 32.8609 19.0175 32.8509 19.123 32.8413C20.8284 32.6841 22.1221 33.18 22.599 33.4002C23.1152 33.639 23.5723 33.8987 23.9771 34.1669V37.4604C23.958 37.4604 23.9399 37.4606 23.9207 37.4606H18.9761C18.2534 37.4606 18.2339 37.4194 18.1407 37.2229C18.0204 36.9681 16.9223 34.7297 15.4256 34.6151C15.0945 34.5894 14.6792 34.5998 14.4033 34.9066C14.1127 35.2296 14.1843 35.6185 14.2418 35.931L15.0931 40.7935H13.2559C12.7007 40.7935 12.2489 41.2452 12.2489 41.8005V46.6174C12.2489 47.174 12.7007 47.6267 13.2559 47.6267H14.7874V48.7681C14.7874 50.0751 15.8507 51.1385 17.1576 51.1385H49.2868C50.5937 51.1385 51.657 50.0751 51.657 48.7681V47.6267H53.1885C53.745 47.6267 54.1978 47.174 54.1978 46.6174V41.8005C54.1978 41.2452 53.7451 40.7935 53.1885 40.7935V40.7935ZM48.8765 37.1401C48.3822 36.0659 48.2835 35.0587 48.5984 34.3041C48.7912 33.8422 49.1331 33.5108 49.587 33.3458C50.0756 33.1684 50.4055 33.1187 50.6105 33.1187C50.7664 33.1187 50.8503 33.1475 50.8767 33.1707C50.8978 33.1893 50.9585 33.3389 50.8702 33.7324V33.7324C50.5954 34.9576 50.7084 35.9326 50.799 36.7161C50.8659 37.2946 50.9237 37.794 50.814 38.2559C50.4653 39.7222 49.6159 40.4287 47.6136 40.6809C47.6188 40.6764 47.6241 40.6719 47.6294 40.6673C49.329 39.2001 49.2455 37.939 48.8765 37.1401ZM43.0256 37.5986C42.9807 37.1807 43.0355 36.7212 43.1834 36.2718C43.5663 35.121 44.6326 33.8873 46.1516 33.7252C46.5956 33.6778 47.0396 33.7166 47.463 33.8339C47.0157 34.9087 47.1211 36.2651 47.7604 37.6546C48.3618 38.9569 46.0727 40.3421 45.3468 40.7409C44.0635 40.2541 43.1825 39.0719 43.0256 37.5986ZM35.9776 38.8824V40.7935H30.6293C30.144 40.7472 29.7631 40.3374 29.7631 39.8402C29.7631 39.3121 30.1927 38.8824 30.7208 38.8824H35.9776ZM33.4229 33.3448C32.6697 33.5474 31.9791 33.8263 31.3792 34.1769C31.3674 34.1838 31.3565 34.1901 31.3462 34.1959C31.2778 34.1151 31.1892 34.0015 31.1074 33.8966C31.0074 33.7685 30.8831 33.6089 30.7337 33.4258C30.4152 33.0377 29.9597 32.5714 29.4897 32.1438L32.8742 30.7783C33.0509 30.7069 33.2351 30.6277 33.4229 30.5404V33.3448H33.4229ZM28.0862 31.3849C27.899 31.4599 27.6923 31.4567 27.5044 31.3763C27.3166 31.2959 27.1719 31.1484 27.0965 30.9595C27.0211 30.7722 27.0238 30.5655 27.1041 30.3776C27.1847 30.1892 27.3327 30.044 27.5208 29.9688C27.5263 29.9667 27.5317 29.9643 27.5372 29.962L30.6415 28.617L31.3714 30.0596L28.0862 31.3849ZM30.117 11.797C31.6459 11.8254 33.2769 12.8695 33.5746 15.0859C32.2321 14.8299 29.4934 14.2817 29.175 14.1992C29.1749 14.1992 29.1748 14.1992 29.1746 14.1991C28.9963 14.153 28.8314 14.133 28.6781 14.133C28.0971 14.133 27.6836 14.4205 27.3372 14.6615C27.1247 14.8094 26.9189 14.9525 26.661 15.0572C26.9692 12.8606 28.5937 11.8254 30.117 11.797V11.797ZM26.6091 17.0887V16.3563C27.2674 16.2058 27.7028 15.9042 28.0391 15.6703C28.4422 15.3899 28.5716 15.3124 28.867 15.3889V15.3888C29.0875 15.4458 32.2744 16.0978 33.6225 16.3459V17.0887C33.6225 18.1449 32.6144 19.6927 31.225 20.3541C31.2055 20.3618 31.1865 20.3703 31.1682 20.3798C31.092 20.4145 31.0151 20.4472 30.9368 20.4763C30.6174 20.5933 30.3646 20.6454 30.117 20.6454C29.8712 20.6454 29.6099 20.5916 29.2978 20.4772C29.223 20.4495 29.1488 20.4179 29.075 20.3842C29.0553 20.3737 29.0348 20.3643 29.014 20.3559C27.723 19.7363 26.6091 18.2539 26.6091 17.0887V17.0887ZM31.5347 21.561V21.7454C31.5347 22.6398 30.8988 23.3675 30.1171 23.3675C29.3341 23.3675 28.697 22.6398 28.697 21.7454V21.5608C28.7551 21.5852 28.8135 21.6084 28.8722 21.6303C29.3269 21.7968 29.7225 21.8744 30.1171 21.8744C30.51 21.8744 30.9049 21.7968 31.3624 21.6293C31.42 21.6078 31.4776 21.585 31.5347 21.561V21.561ZM24.9012 22.6624C25.3927 21.8652 25.9093 21.5401 26.6844 21.5401H27.468V21.7455C27.468 23.3176 28.6563 24.5966 30.117 24.5966C31.5764 24.5966 32.7636 23.3176 32.7636 21.7455V21.5401H33.5472C34.6567 21.5401 35.5595 22.4429 35.5595 23.5525V25.0442C35.5493 25.2397 35.5418 25.4165 35.535 25.578C35.4941 26.5543 35.4817 26.849 35.0448 27.6072C34.5477 28.4692 33.7865 29.0679 32.5145 29.597L31.7655 28.1163C32.0516 27.9666 32.2552 27.8084 32.5428 27.5067C32.5734 27.4748 32.6003 27.4396 32.6232 27.4018L33.364 26.1825C33.5403 25.8924 33.448 25.5145 33.158 25.3382C32.868 25.1618 32.49 25.2543 32.3137 25.5443L31.6082 26.7055C31.3737 26.9461 31.2669 27.0054 30.9131 27.1599L27.056 28.8312C26.7103 28.9712 26.4187 29.202 26.2029 29.4968C25.6542 29.1943 25.0625 28.9726 24.4517 28.8071L25.7029 26.7729C25.8806 26.4839 25.7904 26.1054 25.5014 25.9276C25.2123 25.7499 24.8339 25.8401 24.6561 26.129L23.1749 28.5371C22.5812 28.4419 21.9854 28.3816 21.4079 28.3356L24.9012 22.6624ZM20.867 31.6541C20.315 31.5815 19.6898 31.5549 19.0108 31.6175C18.8986 31.6277 18.6412 31.6552 18.6067 31.6588C18.5941 31.5929 17.7385 26.713 17.7385 26.713C18.224 26.9195 18.9552 27.8754 19.3565 28.7178C19.5847 29.2007 19.8271 29.4053 20.1518 29.4829C20.5343 29.5321 20.8128 29.524 20.9389 29.5326C21.1014 29.5443 21.2664 29.5571 21.4323 29.5709L20.867 31.6541ZM25.206 35.1443C26.1702 36.0677 26.5858 36.9265 26.6379 37.2499C26.4524 37.3447 25.9722 37.4077 25.206 37.4385V35.1443ZM20.0505 38.6896H23.9207C26.306 38.6896 27.1269 38.5488 27.5806 38.062C27.7284 37.9032 27.8984 37.6258 27.8688 37.2065C27.7912 36.0724 26.2266 33.7239 23.1147 32.2847C22.8988 32.1849 22.5419 32.0376 22.0728 31.9037L22.6693 29.7049C23.7949 29.8622 24.908 30.137 25.8128 30.6916C25.8144 30.9374 25.8617 31.1829 25.9559 31.4168C26.1526 31.9093 26.5306 32.296 27.0204 32.5059C27.2733 32.6143 27.5398 32.6686 27.8063 32.6686C27.9309 32.6686 28.0556 32.6567 28.1788 32.6329C28.7537 33.1064 29.3967 33.7338 29.7826 34.2041C29.9223 34.3754 30.037 34.5225 30.1383 34.6524C30.2723 34.8243 30.4013 34.9891 30.5385 35.126V37.6617C29.4178 37.7548 28.5342 38.696 28.5342 39.8403C28.5342 40.1818 28.613 40.5052 28.7532 40.7935H20.0505V38.6896ZM17.0298 37.7485C17.4437 38.6212 18.159 38.6846 18.8215 38.6891V40.7935H16.3408L15.4805 35.8769C15.9695 36.0688 16.6574 36.9596 17.0298 37.7485V37.7485ZM52.9688 46.3978H34.69C34.3506 46.3978 34.0755 46.6729 34.0755 47.0123C34.0755 47.3518 34.3506 47.6268 34.69 47.6268H50.4281V48.7682C50.4281 49.3976 49.9161 49.9096 49.2868 49.9096H17.1576C16.5283 49.9096 16.0163 49.3976 16.0163 48.7682V47.6268H31.9866C32.326 47.6268 32.6011 47.3518 32.6011 47.0123C32.6011 46.6729 32.326 46.3978 31.9866 46.3978H13.4779V42.0225H15.822C15.8226 42.0225 15.8232 42.0226 15.8238 42.0226C15.8242 42.0226 52.9688 42.0225 52.9688 42.0225V46.3978Z" fill="white"/>
</g>
<defs>
<clipPath id="clip0">
<rect width="41.9489" height="41.9489" fill="white" transform="translate(12.2489 9.87878)"/>
</clipPath>
</defs>
</svg>
