<svg width="43" height="43" viewBox="0 0 43 43" fill="none" xmlns="http://www.w3.org/2000/svg">
<rect width="42.248" height="42.248" transform="translate(0.318848)" fill="white"/>
<path d="M21.2376 6.40835C29.5139 6.29657 36.2704 13.0531 36.1586 21.3293C36.0482 29.2666 29.5853 35.7296 21.648 35.8399C13.3704 35.9531 6.61525 29.1966 6.72845 20.9204C6.8374 12.9816 13.3003 6.51872 21.2376 6.40835ZM12.2936 29.561C12.3217 29.5914 12.3563 29.6153 12.3947 29.631C12.4332 29.6466 12.4746 29.6536 12.5161 29.6514C12.5575 29.6493 12.598 29.638 12.6346 29.6185C12.6712 29.5989 12.7031 29.5716 12.728 29.5383C13.3608 28.7104 14.1357 28.0015 15.0167 27.4449C16.818 26.2888 19.1003 25.6521 21.4428 25.6521C23.7853 25.6521 26.0677 26.2888 27.8689 27.4449C28.7499 28.0013 29.5248 28.7099 30.1577 29.5376C30.1825 29.5708 30.2144 29.5982 30.251 29.6178C30.2876 29.6373 30.3281 29.6486 30.3696 29.6507C30.411 29.6529 30.4524 29.6459 30.4909 29.6303C30.5294 29.6146 30.5639 29.5907 30.5921 29.5602C32.6681 27.3192 33.8441 24.3908 33.8946 21.3364C34.01 14.4518 28.3607 8.6893 21.4732 8.67232C14.5858 8.65534 8.991 14.248 8.991 21.1241C8.98863 24.2522 10.1682 27.2657 12.2936 29.561V29.561Z" fill="black"/>
<path d="M21.4429 13.2002C22.838 13.2002 24.0995 13.723 24.9959 14.6732C25.8923 15.6233 26.3401 16.9372 26.2389 18.3472C26.0338 21.1241 23.8823 23.388 21.4429 23.388C19.0034 23.388 16.8562 21.1241 16.6468 18.3479C16.5421 16.9513 16.9864 15.6495 17.8976 14.6817C18.7976 13.7266 20.0569 13.2002 21.4429 13.2002Z" fill="black"/>
</svg>
