<svg width="51" height="51" viewBox="0 0 51 51" fill="none" xmlns="http://www.w3.org/2000/svg">
<g clip-path="url(#clip0)">
<path d="M50.685 25.1887C50.685 39.0496 39.4486 50.286 25.5878 50.286C11.7269 50.286 0.49054 39.0496 0.49054 25.1887C0.49054 11.3279 11.7269 0.0914917 25.5878 0.0914917C39.4486 0.0914917 50.685 11.3279 50.685 25.1887Z" fill="#FFC143"/>
<path d="M27.8427 50.0899H23.333V42.247H27.8427V50.0899Z" fill="#63A0B2"/>
<path d="M38.2166 16.1526V31.2983C38.2166 37.5162 33.7452 42.689 27.8427 43.7785V50.0899H25.2283V43.9867C18.3555 43.8293 12.8325 38.209 12.8325 31.2983V29.5361H17.2044V31.209C17.2044 35.8042 20.9295 39.5292 25.5245 39.5292C30.1196 39.5292 33.8446 35.8042 33.8446 31.209V16.1526H38.2166Z" fill="#7DB0BF"/>
<path d="M36.1628 16.1526V31.2091C36.1628 35.8043 32.4377 39.5292 27.8427 39.5292C27.4491 39.5292 27.0626 39.5 26.6836 39.4472C30.7297 38.8829 33.8446 35.4108 33.8446 31.2092V16.1526H36.1628ZM15.1506 31.2983V29.5361H12.8325V31.2983C12.8325 38.3079 18.5149 43.9904 25.5245 43.9904C25.9153 43.9904 26.3017 43.9718 26.6836 43.9371C20.2173 43.3517 15.1506 37.9171 15.1506 31.2983Z" fill="#63A0B2"/>
<path d="M25.4279 25.9685C24.0341 27.3623 21.2095 26.7973 19.1188 24.7067C17.0281 22.616 16.4632 19.7913 17.8569 18.3976C19.2507 17.0038 22.0753 17.5688 24.1661 19.6594C26.2568 21.75 26.8217 24.5747 25.4279 25.9685Z" fill="#FFF5F5"/>
<path d="M20.0056 25.4716C19.7003 25.2452 19.4026 24.9905 19.1188 24.7067C17.0282 22.616 16.4632 19.7913 17.857 18.3976C19.2508 17.0038 22.0754 17.5688 24.1661 19.6594C24.4499 19.9432 24.7045 20.2408 24.9311 20.5462C23.2687 19.3865 21.2067 19.338 20.0021 20.5426C18.7975 21.7473 18.846 23.8092 20.0056 25.4716Z" fill="#FFE7BF"/>
<path d="M25.7441 22.4993L21.3262 18.0814C20.9434 17.6985 20.9434 17.0778 21.3262 16.6949L37.6051 0.415953C37.9879 0.0331223 38.6087 0.0331223 38.9915 0.415953L43.4094 4.83385C43.7922 5.21668 43.7922 5.83745 43.4094 6.22028L27.1305 22.4993C26.7477 22.8821 26.1269 22.8821 25.7441 22.4993Z" fill="#235967"/>
<path d="M38.9916 0.415953L40.4699 1.89424C40.0871 1.51141 39.4663 1.51141 39.0835 1.89424L22.8046 18.1732C22.4217 18.5561 22.4217 19.1767 22.8046 19.5597L21.3262 18.0814C20.9434 17.6985 20.9434 17.0778 21.3262 16.6948L37.6052 0.415953C37.988 0.0331222 38.6087 0.0331222 38.9916 0.415953Z" fill="#174550"/>
<path d="M25.3024 25.3383L18.4871 18.5229C18.1042 18.1401 18.1042 17.5193 18.4871 17.1365L34.7661 0.857619C35.1489 0.474788 35.7697 0.474788 36.1525 0.857619L42.9679 7.67299C43.3507 8.05582 43.3507 8.67658 42.9679 9.05941L26.6889 25.3383C26.306 25.7211 25.6853 25.7211 25.3024 25.3383Z" fill="#328093"/>
<path d="M25.3024 25.3383L20.3167 20.3526C19.9339 19.9698 19.9339 19.349 20.3167 18.9662L36.5957 2.68728C36.9785 2.30445 37.5993 2.30445 37.9821 2.68728L42.9679 7.67301C43.3507 8.05584 43.3507 8.6766 42.9679 9.05943L26.6889 25.3383C26.306 25.7212 25.6853 25.7212 25.3024 25.3383Z" fill="#4391A6"/>
<path d="M25.4592 27.2618L16.5626 18.3652C16.3711 18.1737 16.3711 17.8635 16.5626 17.672L18.393 15.8416C18.5845 15.6501 18.8948 15.6501 19.0862 15.8416L27.9828 24.7381C28.1743 24.9296 28.1743 25.2399 27.9828 25.4314L26.1524 27.2618C25.9609 27.4533 25.6506 27.4533 25.4592 27.2618Z" fill="#7DB0BF"/>
<path d="M13.0744 26.728L20.4821 30.1927C20.4669 30.7891 20.3322 31.392 20.0632 31.9669C19.0194 34.1987 16.3639 35.1617 14.1322 34.1178C11.9004 33.074 10.9374 30.4185 11.9812 28.1867C12.2501 27.6118 12.6265 27.1219 13.0744 26.728ZM36.0307 12.5836C33.5668 12.5836 31.5695 14.581 31.5695 17.0447C31.5695 19.5085 33.5668 21.5058 36.0307 21.5058C38.4945 21.5058 40.4919 19.5085 40.4919 17.0447C40.4919 14.581 38.4945 12.5836 36.0307 12.5836Z" fill="#7DB0BF"/>
<path d="M17.6386 30.8328C17.2211 31.7255 16.1589 32.1107 15.2662 31.6932C14.3734 31.2757 13.9883 30.2134 14.4058 29.3207C14.8233 28.428 15.8856 28.0428 16.7782 28.4604C17.671 28.878 18.0562 29.9402 17.6386 30.8328ZM36.0307 15.2604C35.0451 15.2604 34.2462 16.0593 34.2462 17.0448C34.2462 18.0304 35.0451 18.8293 36.0307 18.8293C37.0162 18.8293 37.8151 18.0304 37.8151 17.0448C37.8151 16.0593 37.0162 15.2604 36.0307 15.2604Z" fill="#4391A6"/>
<path d="M22.4478 33.0824L9.59648 27.0714C9.3513 26.9567 9.24542 26.6649 9.36012 26.4198L10.0788 24.8831C10.1935 24.6379 10.4853 24.5321 10.7305 24.6468L23.5818 30.6578C23.827 30.7725 23.9329 31.0642 23.8182 31.3094L23.0995 32.846C22.9849 33.0912 22.693 33.1971 22.4478 33.0824ZM34.9993 46.1684H16.1764C15.2759 46.1684 14.5192 46.7762 14.2891 47.6034C17.6851 49.3186 21.5234 50.2859 25.5878 50.2859C29.6523 50.2859 33.4905 49.3186 36.8866 47.6034C36.6565 46.7762 35.8998 46.1684 34.9993 46.1684Z" fill="#235967"/>
<path d="M10.7306 24.6468L12.59 25.5164L11.4559 27.9411L9.59642 27.0714C9.35123 26.9567 9.24536 26.6649 9.36006 26.4197L10.0788 24.8831C10.1936 24.6378 10.4853 24.5321 10.7306 24.6468ZM18.2 47.6034C18.4301 46.7761 19.1868 46.1684 20.0873 46.1684H16.1764C15.2759 46.1684 14.5192 46.7761 14.2891 47.6034C17.6852 49.3186 21.5234 50.2859 25.5879 50.2859C26.246 50.2859 26.898 50.2601 27.5433 50.2103C24.2031 49.9527 21.0462 49.0409 18.2 47.6034Z" fill="#174550"/>
</g>
<defs>
<clipPath id="clip0">
<rect width="50.1945" height="50.1945" fill="white" transform="translate(0.49054 0.0914917)"/>
</clipPath>
</defs>
</svg>
