<svg width="101" height="100" viewBox="0 0 101 100" fill="none" xmlns="http://www.w3.org/2000/svg">
<rect width="100" height="100" transform="translate(0.318848)" fill="white"/>
<path d="M49.8331 15.1683C69.4227 14.9037 85.4152 30.8962 85.1506 50.4858C84.8894 69.2733 69.5918 84.5708 50.8044 84.8321C31.2114 85.1 15.2223 69.1075 15.4902 49.5179C15.7481 30.7271 31.0456 15.4295 49.8331 15.1683ZM28.6627 69.9699C28.7294 70.042 28.8111 70.0986 28.9022 70.1356C28.9932 70.1726 29.0912 70.1892 29.1893 70.1841C29.2875 70.1789 29.3833 70.1523 29.4699 70.106C29.5566 70.0598 29.632 69.995 29.6909 69.9163C31.1887 67.9566 33.0231 66.2788 35.1083 64.9611C39.3718 62.2248 44.7741 60.7177 50.3187 60.7177C55.8634 60.7177 61.2657 62.2248 65.5292 64.9611C67.6143 66.2782 69.4487 67.9554 70.9466 69.9146C71.0054 69.9933 71.0809 70.0581 71.1675 70.1044C71.2542 70.1506 71.35 70.1773 71.4481 70.1824C71.5463 70.1875 71.6443 70.171 71.7353 70.134C71.8263 70.0969 71.9081 70.0404 71.9748 69.9682C76.8887 64.6637 79.6722 57.7323 79.7919 50.5026C80.0648 34.2069 66.6931 20.5672 50.3907 20.527C34.0884 20.4868 20.8456 33.7246 20.8456 50.0002C20.84 57.4043 23.6321 64.5372 28.6627 69.9699V69.9699Z" fill="black"/>
<path d="M50.3189 31.2444C53.6212 31.2444 56.607 32.4819 58.7288 34.7309C60.8505 36.9799 61.9105 40.0897 61.6711 43.4272C61.1854 50 56.0929 55.3588 50.3189 55.3588C44.5448 55.3588 39.4624 50 38.9667 43.4288C38.7189 40.1232 39.7705 37.0419 41.9274 34.751C44.0575 32.4903 47.0383 31.2444 50.3189 31.2444Z" fill="black"/>
</svg>
